<svg width="29" height="29" viewBox="0 0 29 29" fill="none" xmlns="http://www.w3.org/2000/svg">
<path d="M14.0391 28C21.7711 28 28.0391 21.732 28.0391 14C28.0391 6.26801 21.7711 0 14.0391 0C6.30714 0 0.0391235 6.26801 0.0391235 14C0.0391235 21.732 6.30714 28 14.0391 28Z" fill="#235390"/>
<path d="M6.87505 18.1328L7.57484 20.4276C7.59015 20.4873 6.37505 21.1328 6.37505 21.1328L14.6851 27.9853C15.0369 28.0118 13.6806 28 14.0391 28C21.7711 28 28.0391 21.732 28.0391 14C28.0391 13.6414 27.9714 15.9846 27.9449 15.6328L18.375 6.63281L21.375 17.6328L6.87505 18.1328Z" fill="#235390"/>
<path d="M15.1974 21.4419H7.07267C6.68739 21.4419 6.37506 21.1393 6.37506 20.7662V16.9249C6.37506 16.5517 6.68739 16.2491 7.07267 16.2491H15.1975C15.5827 16.2491 15.8951 16.5517 15.8951 16.9249V20.7662C15.895 21.1393 15.5827 21.4419 15.1974 21.4419Z" fill="#FAD87C"/>
<path d="M15.895 16.925V20.7661C15.895 21.1392 15.5828 21.4416 15.1976 21.4416H13.7032C14.0885 21.4416 14.4009 21.1393 14.4009 20.7661V18.226C14.4009 17.6337 13.9052 17.1535 13.2937 17.1535H6.37506V16.9246C6.37506 16.5516 6.68728 16.2491 7.07244 16.2491H15.1973C15.5826 16.2491 15.895 16.5517 15.895 16.925Z" fill="#FEBE40"/>
<path d="M15.1974 16.2492H7.07267C6.68739 16.2492 6.37506 15.9467 6.37506 15.5735V11.7322C6.37506 11.359 6.68739 11.0565 7.07267 11.0565H15.1975C15.5827 11.0565 15.8951 11.359 15.8951 11.7322V15.5735C15.895 15.9467 15.5827 16.2492 15.1974 16.2492Z" fill="#FF127F"/>
<path d="M15.895 11.7326V15.5736C15.895 15.9467 15.5828 16.2491 15.1976 16.2491H13.7032C14.0885 16.2491 14.4009 15.9468 14.4009 15.5736V13.0336C14.4009 12.4412 13.9052 11.9611 13.2937 11.9611H6.37506V11.7322C6.37506 11.3591 6.68728 11.0567 7.07244 11.0567H15.1973C15.5826 11.0567 15.895 11.3593 15.895 11.7326Z" fill="#B10853"/>
<path d="M10.72 5.86372H8.10594V4.80441C8.10594 4.43348 8.40664 4.13281 8.77753 4.13281H10.0484C10.4193 4.13281 10.72 4.43351 10.72 4.80441V5.86372Z" fill="url(#paint0_linear)"/>
<path d="M9.92319 4.13281H9.00209C9.37302 4.13281 9.67368 4.43351 9.67368 4.80441V5.86372H10.5948V4.80441C10.5948 4.43351 10.2941 4.13281 9.92319 4.13281Z" fill="url(#paint1_linear)"/>
<path d="M14.1939 5.86372H11.5799V4.80441C11.5799 4.43348 11.8806 4.13281 12.2515 4.13281H13.5223C13.8933 4.13281 14.1939 4.43351 14.1939 4.80441V5.86372Z" fill="url(#paint2_linear)"/>
<path d="M13.3972 4.13281H12.4761C12.847 4.13281 13.1476 4.43351 13.1476 4.80441V5.86372H14.0687V4.80441C14.0687 4.43351 13.768 4.13281 13.3972 4.13281Z" fill="url(#paint3_linear)"/>
<path d="M14.9205 11.0564H7.05077C6.67759 11.0564 6.37506 10.7539 6.37506 10.3807V6.53942C6.37506 6.16623 6.67759 5.86371 7.05077 5.86371H14.9205C15.2937 5.86371 15.5962 6.16623 15.5962 6.53942V10.3807C15.5962 10.7539 15.2937 11.0564 14.9205 11.0564Z" fill="#00C2F3"/>
<path d="M15.0686 5.86371H13.2987C13.7551 5.86371 14.1251 6.16624 14.1251 6.53942V10.3807C14.1251 10.7539 13.7551 11.0564 13.2987 11.0564H15.0686C15.525 11.0564 15.895 10.7539 15.895 10.3807V6.53939C15.895 6.16624 15.525 5.86371 15.0686 5.86371Z" fill="#1E90FF"/>
<path d="M20.24 16.2492H17.6259V15.1898C17.6259 14.8189 17.9266 14.5182 18.2975 14.5182H19.5684C19.9393 14.5182 20.24 14.8189 20.24 15.1898V16.2492Z" fill="url(#paint4_linear)"/>
<path d="M19.4432 14.5182H18.5221C18.893 14.5182 19.1937 14.8189 19.1937 15.1898V16.2492H20.1148V15.1898C20.1148 14.8189 19.8141 14.5182 19.4432 14.5182Z" fill="url(#paint5_linear)"/>
<path d="M23.7139 16.2492H21.0999V15.1898C21.0999 14.8189 21.4006 14.5182 21.7715 14.5182H23.0423C23.4133 14.5182 23.7139 14.8189 23.7139 15.1898V16.2492Z" fill="url(#paint6_linear)"/>
<path d="M22.9171 14.5182H21.996C22.367 14.5182 22.6676 14.8189 22.6676 15.1898V16.2492H23.5887V15.1898C23.5887 14.8189 23.288 14.5182 22.9171 14.5182Z" fill="url(#paint7_linear)"/>
<path d="M24.4405 21.4419H16.5708C16.1976 21.4419 15.8951 21.1393 15.8951 20.7662V16.9249C15.8951 16.5517 16.1976 16.2491 16.5708 16.2491H24.4405C24.8137 16.2491 25.1162 16.5517 25.1162 16.9249V20.7662C25.1162 21.1393 24.8137 21.4419 24.4405 21.4419Z" fill="#00C2F3"/>
<path d="M24.5886 16.2491H22.8186C23.2751 16.2491 23.6451 16.5517 23.6451 16.9249V20.7662C23.6451 21.1393 23.2751 21.4419 22.8186 21.4419H24.5886C25.045 21.4419 25.415 21.1393 25.415 20.7662V16.9248C25.415 16.5517 25.045 16.2491 24.5886 16.2491Z" fill="#1E90FF"/>
<path d="M19.7298 9.23407L18.1876 7.69189L18.8125 7.06695C19.0314 6.84813 19.3861 6.84813 19.605 7.06695L20.3547 7.81668C20.5735 8.03551 20.5735 8.39028 20.3547 8.6091L19.7298 9.23407Z" fill="#FAD87C"/>
<path d="M20.3548 7.81673L19.8114 7.27332C20.0302 7.49214 20.0302 7.84691 19.8114 8.06573L19.1864 8.69067L19.7299 9.23408L20.3548 8.60915C20.5736 8.39032 20.5736 8.03555 20.3548 7.81673Z" fill="#FEBE40"/>
<path d="M22.0656 11.5699L20.5235 10.0278L21.1484 9.40283C21.3672 9.184 21.722 9.184 21.9408 9.40283L22.6905 10.1526C22.9094 10.3714 22.9094 10.7262 22.6905 10.945L22.0656 11.5699Z" fill="#FAD87C"/>
<path d="M22.6907 10.1525L22.1473 9.60913C22.3661 9.82796 22.3661 10.1827 22.1473 10.4016L21.5224 11.0265L22.0658 11.5699L22.6907 10.945C22.9095 10.7261 22.9095 10.3714 22.6907 10.1525Z" fill="#FEBE40"/>
<path d="M19.5102 14.9758L14.7818 10.2474C14.5576 10.0232 14.5576 9.65966 14.7818 9.43544L17.0898 7.12746C17.314 6.90323 17.6775 6.90323 17.9017 7.12746L22.6301 11.8559C22.8543 12.0801 22.8543 12.4436 22.6301 12.6678L20.3221 14.9758C20.0979 15.2 19.7344 15.2 19.5102 14.9758Z" fill="#FAD87C"/>
<path d="M22.6301 11.8559L21.7606 10.9864C21.9848 11.2106 21.9848 11.5741 21.7606 11.7984L19.4526 14.1063C19.2284 14.3305 18.8649 14.3305 18.6407 14.1063L19.5102 14.9758C19.7344 15.2001 20.0979 15.2001 20.3222 14.9758L22.6301 12.6679C22.8544 12.4437 22.8544 12.0801 22.6301 11.8559Z" fill="#FEBE40"/>
<defs>
<linearGradient id="paint0_linear" x1="7.54413" y1="4.99827" x2="11.2387" y2="4.99827" gradientUnits="userSpaceOnUse">
<stop stop-color="#99E6FC"/>
<stop offset="0.5042" stop-color="#01D0FB"/>
<stop offset="0.5857" stop-color="#08C7F7"/>
<stop offset="0.7226" stop-color="#1BACEC"/>
<stop offset="0.8971" stop-color="#3A82DC"/>
<stop offset="1" stop-color="#4F66D0"/>
</linearGradient>
<linearGradient id="paint1_linear" x1="6.24044" y1="4.99827" x2="11.249" y2="4.99827" gradientUnits="userSpaceOnUse">
<stop stop-color="#99E6FC"/>
<stop offset="0.5042" stop-color="#01D0FB"/>
<stop offset="0.5857" stop-color="#08C7F7"/>
<stop offset="0.7226" stop-color="#1BACEC"/>
<stop offset="0.8971" stop-color="#3A82DC"/>
<stop offset="1" stop-color="#4F66D0"/>
</linearGradient>
<linearGradient id="paint2_linear" x1="11.2203" y1="4.99827" x2="14.5879" y2="4.99827" gradientUnits="userSpaceOnUse">
<stop stop-color="#99E6FC"/>
<stop offset="0.5042" stop-color="#01D0FB"/>
<stop offset="0.5857" stop-color="#08C7F7"/>
<stop offset="0.7226" stop-color="#1BACEC"/>
<stop offset="0.8971" stop-color="#3A82DC"/>
<stop offset="1" stop-color="#4F66D0"/>
</linearGradient>
<linearGradient id="paint3_linear" x1="9.71442" y1="4.99827" x2="14.723" y2="4.99827" gradientUnits="userSpaceOnUse">
<stop stop-color="#99E6FC"/>
<stop offset="0.5042" stop-color="#01D0FB"/>
<stop offset="0.5857" stop-color="#08C7F7"/>
<stop offset="0.7226" stop-color="#1BACEC"/>
<stop offset="0.8971" stop-color="#3A82DC"/>
<stop offset="1" stop-color="#4F66D0"/>
</linearGradient>
<linearGradient id="paint4_linear" x1="17.0641" y1="15.3837" x2="20.7587" y2="15.3837" gradientUnits="userSpaceOnUse">
<stop stop-color="#99E6FC"/>
<stop offset="0.5042" stop-color="#01D0FB"/>
<stop offset="0.5857" stop-color="#08C7F7"/>
<stop offset="0.7226" stop-color="#1BACEC"/>
<stop offset="0.8971" stop-color="#3A82DC"/>
<stop offset="1" stop-color="#4F66D0"/>
</linearGradient>
<linearGradient id="paint5_linear" x1="15.7604" y1="15.3837" x2="20.769" y2="15.3837" gradientUnits="userSpaceOnUse">
<stop stop-color="#99E6FC"/>
<stop offset="0.5042" stop-color="#01D0FB"/>
<stop offset="0.5857" stop-color="#08C7F7"/>
<stop offset="0.7226" stop-color="#1BACEC"/>
<stop offset="0.8971" stop-color="#3A82DC"/>
<stop offset="1" stop-color="#4F66D0"/>
</linearGradient>
<linearGradient id="paint6_linear" x1="20.7403" y1="15.3837" x2="24.1079" y2="15.3837" gradientUnits="userSpaceOnUse">
<stop stop-color="#99E6FC"/>
<stop offset="0.5042" stop-color="#01D0FB"/>
<stop offset="0.5857" stop-color="#08C7F7"/>
<stop offset="0.7226" stop-color="#1BACEC"/>
<stop offset="0.8971" stop-color="#3A82DC"/>
<stop offset="1" stop-color="#4F66D0"/>
</linearGradient>
<linearGradient id="paint7_linear" x1="19.2344" y1="15.3837" x2="24.243" y2="15.3837" gradientUnits="userSpaceOnUse">
<stop stop-color="#99E6FC"/>
<stop offset="0.5042" stop-color="#01D0FB"/>
<stop offset="0.5857" stop-color="#08C7F7"/>
<stop offset="0.7226" stop-color="#1BACEC"/>
<stop offset="0.8971" stop-color="#3A82DC"/>
<stop offset="1" stop-color="#4F66D0"/>
</linearGradient>
</defs>
</svg>

