<svg width="29" height="29" viewBox="0 0 29 29" fill="none" xmlns="http://www.w3.org/2000/svg">
<path d="M14.0626 28.1875C21.8291 28.1875 28.125 21.8916 28.125 14.1251C28.125 6.3586 21.8291 0.0626221 14.0626 0.0626221C6.2961 0.0626221 0.00012207 6.3586 0.00012207 14.1251C0.00012207 21.8916 6.2961 28.1875 14.0626 28.1875Z" fill="#235390"/>
<path d="M16.7942 11.3272C20.023 11.2779 22.6583 13.8191 22.7208 17.0476C22.73 17.5216 22.6826 17.983 22.585 18.4255C22.4197 19.1749 22.3214 19.9374 22.3214 20.7048V22.188C22.3214 22.4153 22.1372 22.5995 21.91 22.5995H20.4267C19.6593 22.5995 18.8968 22.6978 18.1474 22.8631C17.7049 22.9607 17.2435 23.008 16.7695 22.9989C13.5411 22.9364 10.9998 20.3012 11.0491 17.0725C11.0971 13.921 13.6428 11.3753 16.7942 11.3272Z" fill="#FAD87C"/>
<path d="M16.7942 11.3272C20.023 11.2779 22.6583 13.8191 22.7208 17.0476C22.73 17.5216 22.6826 17.983 22.585 18.4255C22.4197 19.1749 22.3214 19.9374 22.3214 20.7048V22.188C22.3214 22.4153 22.1372 22.5995 21.91 22.5995H20.4267C19.6593 22.5995 18.8968 22.6978 18.1474 22.8631C17.7049 22.9607 17.2435 23.008 16.7695 22.9989C13.5411 22.9364 10.9998 20.3012 11.0491 17.0725C11.0971 13.921 13.6428 11.3753 16.7942 11.3272Z" fill="#FAD87C"/>
<path d="M12.2606 6.00086C8.32714 5.94077 5.11667 9.03665 5.04048 12.9699C5.02933 13.5473 5.08704 14.1094 5.20598 14.6485C5.40733 15.5614 5.52703 16.4904 5.52703 17.4253V19.2323C5.52703 19.5091 5.75145 19.7336 6.02833 19.7336H7.83534C8.77018 19.7336 9.69917 19.8533 10.6121 20.0546C11.1512 20.1735 11.7133 20.2313 12.2907 20.2201C16.2239 20.1439 19.3197 16.9336 19.2598 13.0002C19.2012 9.16084 16.0999 6.05947 12.2606 6.00086Z" fill="#00C2F3"/>
<path d="M9.60461 12.7296C9.40374 12.5161 9.11944 12.3821 8.80315 12.3821C8.19486 12.3821 7.70175 12.8752 7.70175 13.4835C7.70175 13.7997 7.83575 14.084 8.04922 14.2849L10.4251 16.6608C10.626 16.8743 10.9103 17.0083 11.2266 17.0083C11.8349 17.0083 12.328 16.5152 12.328 15.9069C12.328 15.5907 12.1939 15.3063 11.9805 15.1055L9.60461 12.7296Z" fill="url(#paint0_linear)"/>
<path d="M8.80315 14.5848C9.41144 14.5848 9.90455 14.0917 9.90455 13.4834C9.90455 12.8751 9.41144 12.382 8.80315 12.382C8.19487 12.382 7.70175 12.8751 7.70175 13.4834C7.70175 14.0917 8.19487 14.5848 8.80315 14.5848Z" fill="white"/>
<path d="M12.7194 12.7296C12.5186 12.5161 12.2343 12.3821 11.918 12.3821C11.3097 12.3821 10.8166 12.8752 10.8166 13.4835C10.8166 13.7997 10.9506 14.084 11.164 14.2849L13.5399 16.6608C13.7408 16.8743 14.0251 17.0083 14.3414 17.0083C14.9497 17.0083 15.4428 16.5152 15.4428 15.9069C15.4428 15.5907 15.3087 15.3063 15.0953 15.1055L12.7194 12.7296Z" fill="url(#paint1_linear)"/>
<path d="M11.918 14.5848C12.5263 14.5848 13.0194 14.0917 13.0194 13.4834C13.0194 12.8751 12.5263 12.382 11.918 12.382C11.3097 12.382 10.8166 12.8751 10.8166 13.4834C10.8166 14.0917 11.3097 14.5848 11.918 14.5848Z" fill="white"/>
<path d="M15.8343 12.7296C15.6334 12.5161 15.3491 12.3821 15.0328 12.3821C14.4246 12.3821 13.9314 12.8752 13.9314 13.4835C13.9314 13.7997 14.0655 14.084 14.2789 14.2849L16.6548 16.6608C16.8557 16.8743 17.14 17.0083 17.4563 17.0083C18.0646 17.0083 18.5577 16.5152 18.5577 15.9069C18.5577 15.5907 18.4236 15.3063 18.2102 15.1055L15.8343 12.7296Z" fill="url(#paint2_linear)"/>
<path d="M15.033 14.5848C15.6413 14.5848 16.1344 14.0917 16.1344 13.4834C16.1344 12.8751 15.6413 12.382 15.033 12.382C14.4247 12.382 13.9316 12.8751 13.9316 13.4834C13.9316 14.0917 14.4247 14.5848 15.033 14.5848Z" fill="white"/>
<defs>
<linearGradient id="paint0_linear" x1="11.2532" y1="15.9338" x2="6.48963" y2="11.1703" gradientUnits="userSpaceOnUse">
<stop stop-color="#00A2F3" stop-opacity="0"/>
<stop offset="1" stop-color="#0075CD"/>
</linearGradient>
<linearGradient id="paint1_linear" x1="14.3678" y1="15.9337" x2="9.60436" y2="11.1702" gradientUnits="userSpaceOnUse">
<stop stop-color="#00A2F3" stop-opacity="0"/>
<stop offset="1" stop-color="#0075CD"/>
</linearGradient>
<linearGradient id="paint2_linear" x1="17.4827" y1="15.9337" x2="12.7192" y2="11.1703" gradientUnits="userSpaceOnUse">
<stop stop-color="#00A2F3" stop-opacity="0"/>
<stop offset="1" stop-color="#0075CD"/>
</linearGradient>
</defs>
</svg>
