<svg width="28" height="28" viewBox="0 0 28 28" fill="none" xmlns="http://www.w3.org/2000/svg">
<path d="M14 28C21.732 28 28 21.732 28 14C28 6.26801 21.732 0 14 0C6.26801 0 0 6.26801 0 14C0 21.732 6.26801 28 14 28Z" fill="#235390"/>
<path d="M28 14C28 13.7266 27.9913 13.4551 27.9758 13.1856L20.1646 5.37441L19.7969 6.45312L18.6326 6.39844L15.7349 3.5L3.5 15.7349L6.39844 18.6326L7.82048 22.6107L13.1856 27.9758C13.4551 27.9913 13.7266 28 14 28C21.732 28 28 21.732 28 14Z" fill="#235390"/>
<path d="M24.5 15.7349V12.265L21.6535 11.699C21.4936 11.1822 21.2966 10.69 21.0382 10.2102L22.6256 7.83535L20.1646 5.37441L17.7898 6.96177C17.31 6.70338 16.8177 6.50645 16.301 6.34654L15.7349 3.5H12.265L11.699 6.34654C11.1822 6.50645 10.69 6.70338 10.2102 6.96177L7.83535 5.37441L5.37441 7.83535L6.96177 10.2102C6.70338 10.69 6.50645 11.1823 6.34654 11.699L3.5 12.2651V15.735L6.34654 16.301C6.50645 16.8178 6.70338 17.31 6.96177 17.7898L5.37441 20.1646L7.83535 22.6256L10.2102 21.0382C10.69 21.2966 11.1823 21.4936 11.699 21.6535L12.2651 24.5H15.735L16.301 21.6535C16.8178 21.4936 17.31 21.2966 17.7898 21.0382L20.1646 22.6256L22.6256 20.1646L21.0382 17.7898C21.2966 17.31 21.4936 16.8177 21.6535 16.301L24.5 15.7349ZM14 18.3066C11.6252 18.3066 9.69336 16.3748 9.69336 14C9.69336 11.6252 11.6252 9.69336 14 9.69336C16.3748 9.69336 18.3066 11.6252 18.3066 14C18.3066 16.3748 16.3748 18.3066 14 18.3066Z" fill="white"/>
<path d="M21.6535 16.301C21.4936 16.8178 21.2966 17.31 21.0382 17.7898L22.6256 20.1646L20.1646 22.6256L17.7898 21.0382C17.31 21.2966 16.8177 21.4936 16.301 21.6535L15.7349 24.5H14V18.3066C16.3748 18.3066 18.3066 16.3748 18.3066 14C18.3066 11.6252 16.3748 9.69336 14 9.69336V3.5H15.7349L16.3009 6.34654C16.8177 6.50645 17.3099 6.70338 17.7898 6.96177L20.1646 5.37441L22.6255 7.83535L21.0382 10.2102C21.2966 10.69 21.4936 11.1823 21.6535 11.699L24.5 12.2651V15.735L21.6535 16.301Z" fill="white"/>
</svg>

