<svg width="69" height="68" viewBox="0 0 69 68" fill="none" xmlns="http://www.w3.org/2000/svg">
<g clip-path="url(#clip0)">
<path d="M34.6795 67.8419C53.3509 67.8419 68.487 52.7058 68.487 34.0345C68.487 15.3632 53.3509 0.227051 34.6795 0.227051C16.0082 0.227051 0.87207 15.3632 0.87207 34.0345C0.87207 52.7058 16.0082 67.8419 34.6795 67.8419Z" fill="#235390"/>
<path d="M68.4869 34.0344C68.4869 31.9065 68.2882 29.8252 67.9122 27.8064L53.2858 13.148C45.8154 5.43582 34.8048 11.8224 34.5602 11.9185C34.3089 11.8197 22.6867 5.07476 15.2222 13.8182L18.5529 17.1595C14.7725 19.3147 9.94956 23.249 8.94775 29.6104L14.0779 34.7496C13.6993 35.8683 13.4037 37.0549 13.2719 38.259L19.2688 44.1225C19.0291 44.527 18.8136 44.9694 18.6257 45.4529L24.2632 51.1152H22.3754C19.1531 51.1152 16.2399 53.0354 14.9694 55.9962L13.1932 60.1348C13.2784 60.2059 13.3646 60.2745 13.4505 60.344C13.5251 60.4042 13.5994 60.4648 13.6746 60.5245C13.8032 60.6265 13.9325 60.7276 14.063 60.8273C14.0731 60.8351 14.0833 60.8429 14.0935 60.8507C14.2414 60.9636 14.3902 61.0756 14.5396 61.1865L14.5387 61.1888C20.1644 65.3682 27.1329 67.8418 34.6795 67.8418C53.3508 67.8418 68.4869 52.7057 68.4869 34.0344Z" fill="#235390"/>
<path d="M51.3546 27.745L60.1728 29.6104C58.477 18.8421 45.8297 15.0266 45.8297 15.0266L53.8983 13.8183C46.4337 5.07477 34.8115 11.8197 34.5602 11.9185C34.3089 11.8197 22.6866 5.07477 15.2222 13.8182L23.2908 15.0264C23.2908 15.0264 10.6435 18.8419 8.94775 29.6102L17.766 27.7449C17.766 27.7449 13.8655 32.8323 13.2721 38.2589C13.2721 38.2589 18.522 39.0906 22.8445 40.985C21.0679 41.755 19.528 43.1316 18.6258 45.4527C18.6258 45.4527 28.2922 48.3208 30.7088 50.6593H34.5603H38.4117C40.8283 48.3208 50.4947 45.4527 50.4947 45.4527C49.5925 43.1316 48.0527 41.755 46.2761 40.985C50.5985 39.0906 55.8484 38.2589 55.8484 38.2589C55.2548 32.8324 51.3546 27.745 51.3546 27.745Z" fill="white"/>
<path d="M55.8487 38.2591C55.8487 38.2591 50.598 39.091 46.2757 40.9848C48.0532 41.7547 49.593 43.1321 50.495 45.4524C50.495 45.4524 40.8282 48.3207 38.4115 50.6595H34.6794V11.8575C35.9499 11.1906 46.8026 5.50676 53.8982 13.8186L45.8293 15.027C45.8293 15.027 58.4767 18.8422 60.1724 29.6104L51.3547 27.7444C51.3547 27.7444 55.2544 32.8327 55.8487 38.2591Z" fill="#FFF5CB"/>
<path d="M40.382 45.4576H28.9773V59.8456H40.382V45.4576Z" fill="#FFC473"/>
<path d="M40.3818 45.4576H34.6794V59.8456H40.3818V45.4576Z" fill="#FFAA20"/>
<path d="M48.1161 28.1222C47.5501 19.7903 40.4444 15.0615 34.56 15.0615C28.6755 15.0615 21.5699 19.7903 21.0038 28.1222C19.4812 28.4075 18.4005 29.8306 18.57 31.3952L18.8322 33.8163C19.0101 35.4587 20.4995 36.657 22.1419 36.4791L22.4248 36.4485C25.7871 45.2005 31.2129 47.4538 34.5601 47.9656C37.9073 47.4538 43.3331 45.2004 46.6954 36.4485L46.9783 36.4791C48.6207 36.657 50.1101 35.4587 50.288 33.8163L50.5502 31.3952C50.7194 29.8306 49.6389 28.4075 48.1161 28.1222Z" fill="#FFDBA9"/>
<path d="M50.5511 31.3953L50.2885 33.8169C50.11 35.4592 48.6214 36.6569 46.979 36.4796L46.6952 36.4488C43.3336 45.2009 37.9076 47.4533 34.5603 47.9653V15.0616C40.3646 15.0616 47.3572 19.6624 48.0904 27.7842C48.1011 27.9012 48.1093 28.0136 48.1164 28.1224C49.6395 28.4073 50.7201 29.8309 50.5511 31.3953Z" fill="#FFC473"/>
<path d="M32.5015 29.3224H25.5117V32.3511H32.5015V29.3224Z" fill="#FFC473"/>
<path d="M34.5596 29.3228V38.9492H37.5882V32.3513H44.186V29.3228H34.5596Z" fill="#FFA91F"/>
<path d="M55.7349 60.4848C49.9586 65.0898 42.6398 67.8419 34.6792 67.8419C26.7186 67.8419 19.3999 65.0898 13.6235 60.4848C13.7833 56.0159 17.0003 52.2892 21.2355 51.3463C21.2791 51.337 21.324 51.3278 21.3689 51.3185C21.4138 51.3093 21.4574 51.2987 21.5023 51.2908C21.5194 51.2869 21.5366 51.2842 21.5524 51.2816C21.5868 51.2736 21.6238 51.267 21.6594 51.2604C21.6673 51.2591 21.6739 51.2578 21.6819 51.2565C21.7122 51.2512 21.7426 51.2459 21.773 51.2433C21.8337 51.2327 21.8932 51.2235 21.9552 51.2142C21.9658 51.2129 21.979 51.2103 21.9909 51.2089C22.0054 51.2063 22.0199 51.205 22.0358 51.2023C22.0701 51.1984 22.1045 51.1931 22.1401 51.1891C22.1454 51.1878 22.152 51.1878 22.1573 51.1865C22.1718 51.1852 22.1837 51.1825 22.1982 51.1825C22.2154 51.1799 22.2352 51.1772 22.2537 51.1759C22.3435 51.1654 22.4346 51.1574 22.5257 51.1495C22.531 51.1495 22.535 51.1482 22.5402 51.1482C22.5693 51.1455 22.5984 51.1429 22.6287 51.1403C22.634 51.1403 22.6419 51.1389 22.6485 51.1389C22.7 51.1363 22.7502 51.1323 22.8017 51.1297C22.8889 51.1244 22.9787 51.1205 23.0685 51.1178C23.1583 51.1165 23.2481 51.1152 23.3392 51.1152H46.0193C46.0959 51.1152 46.1724 51.1165 46.2477 51.1178H46.29C46.3058 51.1178 46.323 51.1191 46.3402 51.1205C46.3494 51.1205 46.36 51.1205 46.3705 51.1218C46.4326 51.1231 46.4947 51.1257 46.5554 51.1297H46.5567C46.6082 51.1323 46.6584 51.1363 46.7099 51.1389C46.7165 51.1389 46.7245 51.1403 46.7297 51.1403C46.7601 51.1429 46.7892 51.1455 46.8182 51.1482C46.8235 51.1482 46.8275 51.1495 46.8327 51.1495C46.9252 51.1561 47.0163 51.164 47.1048 51.1759C47.1233 51.1772 47.1431 51.1799 47.1603 51.1825C47.1748 51.1825 47.1867 51.1852 47.2012 51.1865C47.2065 51.1878 47.2131 51.1878 47.2184 51.1891C47.254 51.1931 47.2884 51.1984 47.3227 51.2023C47.3385 51.205 47.3531 51.2063 47.3676 51.2089C47.3782 51.2103 47.39 51.2116 47.3993 51.2142H47.4032C47.4957 51.2274 47.5855 51.242 47.6766 51.2565C47.6845 51.2578 47.6911 51.2591 47.6991 51.2604C47.7347 51.267 47.7717 51.2736 47.806 51.2816C47.8615 51.2908 47.917 51.3027 47.9724 51.3133C48.0068 51.3212 48.0398 51.3278 48.0728 51.3357C48.09 51.3384 48.1071 51.3423 48.123 51.3463C52.3582 52.2892 55.5751 56.0159 55.7349 60.4848Z" fill="#FFDBA9"/>
<path d="M55.7351 60.4848C49.9588 65.0898 42.64 67.8419 34.6794 67.8419V51.1152H46.0195C46.0961 51.1152 46.1727 51.1165 46.2479 51.1178H46.2902C46.306 51.1178 46.3232 51.1191 46.3404 51.1205C46.3496 51.1205 46.3602 51.1205 46.3707 51.1218C46.4328 51.1231 46.4949 51.1257 46.5556 51.1297H46.557C46.6085 51.1323 46.6586 51.1363 46.7101 51.1389C46.7167 51.1389 46.7247 51.1403 46.7299 51.1403C46.7603 51.1429 46.7894 51.1455 46.8184 51.1482C46.8237 51.1482 46.8277 51.1495 46.833 51.1495C46.9254 51.1561 47.0165 51.164 47.105 51.1759C47.1235 51.1772 47.1433 51.1799 47.1605 51.1825C47.175 51.1825 47.1869 51.1852 47.2014 51.1865C47.2067 51.1878 47.2133 51.1878 47.2186 51.1891C47.2542 51.1931 47.2886 51.1984 47.3229 51.2023C47.3387 51.205 47.3533 51.2063 47.3678 51.2089C47.3784 51.2103 47.3903 51.2116 47.3995 51.2142H47.4035C47.4959 51.2274 47.5857 51.242 47.6768 51.2565C47.6847 51.2578 47.6913 51.2591 47.6993 51.2604C47.7349 51.267 47.7719 51.2736 47.8062 51.2816C47.8617 51.2908 47.9172 51.3027 47.9726 51.3133C48.007 51.3212 48.04 51.3278 48.073 51.3357C48.0902 51.3384 48.1073 51.3423 48.1232 51.3463C52.3584 52.2892 55.5754 56.0159 55.7351 60.4848Z" fill="#FFC473"/>
<path d="M43.8463 51.1152V66.5834C42.6815 66.9109 41.493 67.1777 40.2807 67.3797C39.1542 67.5672 38.0092 67.6993 36.8484 67.7733C36.1313 67.8195 35.4089 67.8419 34.68 67.8419C33.951 67.8419 33.2286 67.8195 32.5115 67.7733C31.3507 67.6993 30.2058 67.5672 29.0793 67.3797C27.867 67.1777 26.6784 66.9109 25.5137 66.5834V51.1152H43.8463Z" fill="#00D9E0"/>
<path d="M43.8458 51.1152V66.5834C42.681 66.9109 41.4924 67.1777 40.2801 67.3797C39.1537 67.5672 38.0087 67.6993 36.8479 67.7733C36.1308 67.8195 35.4084 67.8419 34.6794 67.8419V51.1152H43.8458Z" fill="#00989D"/>
<path d="M32.5112 67.7733C31.3503 67.6993 30.2054 67.5672 29.0789 67.3797C23.2986 66.4157 18.0162 63.9858 13.6239 60.4848C13.4799 60.37 13.336 60.2537 13.1934 60.1349L14.9696 55.9961C16.24 53.0353 19.1532 51.1152 22.3755 51.1152H27.926L32.5112 67.7733Z" fill="white"/>
<path d="M56.1662 60.1349C56.0236 60.2537 55.8796 60.37 55.7357 60.4848C51.3433 63.9858 46.0609 66.4157 40.2806 67.3797C39.1542 67.5672 38.0092 67.6993 36.8484 67.7733L41.4335 51.1152H46.984C50.2063 51.1152 53.1196 53.0353 54.39 55.9961L56.1662 60.1349Z" fill="#FFF5CB"/>
<path d="M29.0789 67.3797L29.6705 65.9733L21.8459 55.1364L27.926 51.1152L32.5111 67.7733C31.3503 67.6993 30.2054 67.5672 29.0789 67.3797Z" fill="#FFF5CB"/>
<path d="M39.6888 65.9733L40.2804 67.3797C39.1539 67.5672 38.009 67.6993 36.8481 67.7733L41.4333 51.1152L47.5133 55.1364L39.6888 65.9733Z" fill="#FFDF47"/>
<path d="M47.3938 20.6965C44.6091 11.9805 34.5601 12.1125 34.5601 12.1125C34.5601 12.1125 24.5111 11.9805 21.7265 20.6965L20.8848 28.1223L28.8878 20.6965L34.56 25.9789L40.2323 20.6965L48.2354 28.1223L47.3938 20.6965Z" fill="white"/>
<path d="M48.2354 28.1222L40.2326 20.6965L34.6794 25.8667V12.1139C35.8257 12.1324 44.7887 12.5431 47.3929 20.6965L48.2354 28.1222Z" fill="#FFF5CB"/>
<path d="M42.6666 42.0524C42.6666 42.0524 41.3578 42.0891 38.7115 40.3289C36.7235 39.0064 35.1969 39.9814 34.5604 40.5482C33.9238 39.9814 32.3972 39.0064 30.4092 40.3289C27.7629 42.0891 26.4541 42.0524 26.4541 42.0524C26.4541 42.0524 31.2657 45.2118 34.5604 42.1916C37.855 45.2119 42.6666 42.0524 42.6666 42.0524Z" fill="white"/>
<path d="M42.6665 42.0518C42.6665 42.0518 37.9691 45.1368 34.6794 42.2975V40.446C35.3741 39.8768 36.8386 39.0831 38.7112 40.3284C41.3577 42.0888 42.6665 42.0518 42.6665 42.0518Z" fill="#FFF5CB"/>
<path d="M23.9709 29.6412V34.7954C23.9709 36.2863 25.1796 37.4949 26.6705 37.4949H31.0454C31.9724 37.4949 32.7955 36.9022 33.0895 36.0233L33.7655 34.0019C34.0207 33.2385 35.1006 33.2385 35.356 34.0019L36.032 36.0233C36.326 36.9022 37.1491 37.4949 38.0761 37.4949H42.451C43.9419 37.4949 45.1505 36.2863 45.1505 34.7954V29.6412H23.9709Z" fill="#49BBEE"/>
<path d="M45.1499 29.6411V34.7954C45.1499 36.2865 43.9415 37.495 42.4504 37.495H38.0757C37.1487 37.495 36.3259 36.9021 36.0317 36.0233L35.3557 34.002C35.2277 33.6202 34.8941 33.429 34.5605 33.429V29.6411H45.1499Z" fill="#009AE5"/>
<path d="M42.4508 38.1599H38.0759C36.8614 38.1599 35.7865 37.386 35.4013 36.2342L34.7253 34.2129C34.699 34.1343 34.6435 34.0944 34.5606 34.0944C34.4777 34.0944 34.4222 34.1343 34.3959 34.213L33.7199 36.2343C33.3347 37.3862 32.2599 38.16 31.0453 38.16H26.6704C24.8152 38.16 23.3059 36.6507 23.3059 34.7955V28.9764H45.8153V34.7955C45.8153 36.6506 44.306 38.1599 42.4508 38.1599ZM34.5607 32.7645C35.2183 32.7645 35.7781 33.1674 35.9866 33.791L36.6626 35.8124C36.8663 36.4211 37.4342 36.8301 38.0761 36.8301H42.451C43.5728 36.8301 44.4856 35.9173 44.4856 34.7954V30.3062H24.6359V34.7954C24.6359 35.9173 25.5487 36.8301 26.6705 36.8301H31.0454C31.6872 36.8301 32.2552 36.4211 32.4589 35.8124L33.1349 33.7911C33.3434 33.1674 33.9031 32.7645 34.5607 32.7645Z" fill="white"/>
<path d="M34.5608 28.9761V30.306H44.4854V34.7954C44.4854 35.9175 43.5727 36.83 42.4507 36.83H38.0761C37.4344 36.83 36.8664 36.4212 36.6625 35.8121L35.9865 33.7907C35.7781 33.1673 35.2186 32.7644 34.5608 32.7644V34.0943C34.6439 34.0943 34.6993 34.1342 34.7253 34.2129L35.4014 36.2342C35.7864 37.3856 36.8614 38.1597 38.076 38.1597H42.4506C44.3058 38.1597 45.8151 36.6503 45.8151 34.7952V28.976L34.5608 28.9761Z" fill="#FFF5CB"/>
<path d="M45.8149 27.7378H23.3052V29.1835H45.8149V27.7378Z" fill="#3A4DE3"/>
<path d="M45.8152 27.7378H34.561V29.1833H45.8152V27.7378Z" fill="#1C2EDE"/>
</g>
<defs>
<clipPath id="clip0">
<rect width="67.6149" height="67.6149" fill="white" transform="translate(0.87207 0.227051)"/>
</clipPath>
</defs>
</svg>